<svg width="15" height="18" viewBox="0 0 15 18" fill="none" xmlns="http://www.w3.org/2000/svg">
<path d="M9.52706 11.3967L10.5977 14.6085C10.8196 15.2741 10.536 16.0034 9.92277 16.3443C8.77965 16.9797 7.34521 17.2917 5.625 17.2917C3.90479 17.2917 2.47036 16.9797 1.32724 16.3443C0.713961 16.0034 0.430372 15.2741 0.652253 14.6085L1.72294 11.3967C2.80693 12.2198 4.15892 12.7083 5.625 12.7083C7.09108 12.7083 8.44307 12.2198 9.52706 11.3967ZM5.625 0.625C6.73882 0.625 7.77703 0.94873 8.65067 1.50723C8.58182 1.76835 8.47698 1.96063 8.3438 2.0938C8.13337 2.30424 7.77536 2.44392 7.23995 2.48637L7.05487 2.49688L6.73942 2.50488C4.93166 2.63724 4.97685 5.41667 6.875 5.41667C7.61684 5.41667 8.08873 5.56779 8.3438 5.82286C8.55424 6.0333 8.69392 6.39131 8.73637 6.92672L8.74688 7.1118L8.75488 7.42725C8.83506 8.52236 9.88665 8.93749 10.7033 8.67262C9.79815 10.5664 7.8644 11.875 5.625 11.875C2.5184 11.875 0 9.3566 0 6.25C0 3.1434 2.5184 0.625 5.625 0.625ZM10.8333 0.625C10.8333 1.58301 11.0582 2.25767 11.4836 2.68306C11.8763 3.07572 12.4813 3.29755 13.3256 3.32935L13.5417 3.33333C14.3403 3.33333 14.3736 4.48134 13.6415 4.577L13.5417 4.58333C12.5837 4.58333 11.909 4.80822 11.4836 5.23361C11.0909 5.62627 10.8691 6.23134 10.8373 7.0756L10.8333 7.29167C10.8333 8.125 9.58333 8.125 9.58333 7.29167C9.58333 6.33366 9.35845 5.659 8.93306 5.23361C8.54039 4.84094 7.93533 4.61912 7.09106 4.58731L6.875 4.58333C6.07639 4.58333 6.04311 3.43533 6.77517 3.33966L6.875 3.33333C7.83301 3.33333 8.50767 3.10845 8.93306 2.68306C9.35845 2.25767 9.58333 1.58301 9.58333 0.625C9.58333 -0.208333 10.8333 -0.208333 10.8333 0.625Z" fill="#88919F" stroke="white" stroke-width="0.000533333"/>
</svg>
