<svg width="32" height="24" viewBox="0 0 32 24" fill="none" xmlns="http://www.w3.org/2000/svg">
<g clip-path="url(#clip0_2_8)">
<path d="M21.4125 8.78055H10.5874C8.00707 8.78055 5.90784 10.2605 5.90784 12.0795C5.90784 13.8986 8.00707 15.3785 10.5874 15.3785H21.4125C23.9929 15.3785 26.0921 13.8986 26.0921 12.0795C26.0921 10.2605 23.9929 8.78055 21.4125 8.78055ZM7.48419 12.0795C7.48419 10.8732 8.87627 9.89184 10.5874 9.89184C12.2985 9.89184 13.6906 10.8732 13.6906 12.0795C13.6906 13.2858 12.2985 14.2672 10.5874 14.2672C8.87627 14.2672 7.48419 13.2858 7.48419 12.0795ZM21.4125 14.2672H14.0859C14.8199 13.6845 15.267 12.9183 15.267 12.0795C15.267 11.2408 14.8199 10.4745 14.0859 9.89184H21.4125C23.1237 9.89184 24.5158 10.8732 24.5158 12.0795C24.5158 13.2858 23.1237 14.2672 21.4125 14.2672Z" fill="#88919F"/>
<path d="M21.4125 16.7612H10.5874C8.00707 16.7612 5.90784 18.2411 5.90784 20.0602C5.90784 21.8792 8.00707 23.3591 10.5874 23.3591H21.4125C23.9929 23.3591 26.0921 21.8792 26.0921 20.0602C26.0921 18.2411 23.9929 16.7612 21.4125 16.7612ZM7.48419 20.0602C7.48419 18.8538 8.87627 17.8725 10.5874 17.8725C12.2985 17.8725 13.6906 18.8538 13.6906 20.0602C13.6906 21.2665 12.2985 22.2478 10.5874 22.2478C8.87627 22.2478 7.48419 21.2665 7.48419 20.0602ZM21.4125 22.2478H14.0859C14.8199 21.6651 15.267 20.8989 15.267 20.0602C15.267 19.2214 14.8199 18.4552 14.0859 17.8725H21.4125C23.1237 17.8725 24.5158 18.8538 24.5158 20.0602C24.5158 21.2665 23.1237 22.2478 21.4125 22.2478Z" fill="#88919F"/>
<path d="M10.5874 7.39787H21.4125C23.9929 7.39787 26.0921 5.91796 26.0921 4.09888C26.0921 2.27981 23.9929 0.799896 21.4125 0.799896H10.5874C8.00707 0.799896 5.90784 2.27981 5.90784 4.09888C5.90784 5.91796 8.00707 7.39787 10.5874 7.39787ZM24.5158 4.09888C24.5158 5.30519 23.1237 6.28658 21.4125 6.28658C19.7014 6.28658 18.3093 5.30519 18.3093 4.09888C18.3093 2.89257 19.7014 1.91119 21.4125 1.91119C23.1237 1.91119 24.5158 2.89257 24.5158 4.09888ZM10.5874 1.91119H17.9141C17.18 2.4939 16.733 3.26013 16.733 4.09888C16.733 4.93763 17.18 5.70387 17.9141 6.28658H10.5874C8.87627 6.28658 7.48419 5.30519 7.48419 4.09888C7.48419 2.89257 8.87627 1.91119 10.5874 1.91119Z" fill="#88919F"/>
</g>
<defs>
<clipPath id="clip0_2_8">
<rect width="32" height="22.5593" fill="white" transform="translate(0 0.799896)"/>
</clipPath>
</defs>
</svg>
